<svg width="23" height="23" viewBox="0 0 23 23" fill="none" xmlns="http://www.w3.org/2000/svg">
<g clip-path="url(#clip0_209_3)">
<path d="M16.8667 0.000610352C16.4599 0.000615196 16.0698 0.162117 15.7821 0.449589C15.4945 0.73706 15.3329 1.12695 15.3329 1.53349V2.30069H1.53378C1.12701 2.30069 0.736893 2.46218 0.449255 2.74964C0.161617 3.03709 1.61486e-05 3.42696 0 3.83349C-1.8397e-06 4.03479 0.0396692 4.23412 0.116748 4.4201C0.193827 4.60608 0.306804 4.77506 0.449229 4.9174C0.591654 5.05974 0.760737 5.17265 0.946825 5.24969C1.13291 5.32673 1.33236 5.36638 1.53378 5.36638H15.3329V6.13447C15.3329 6.54101 15.4945 6.9309 15.7821 7.21837C16.0698 7.50584 16.4599 7.66735 16.8667 7.66735C17.2735 7.66735 17.6636 7.50584 17.9512 7.21837C18.2389 6.9309 18.4005 6.54101 18.4004 6.13447V5.36638H21.4661C21.6676 5.36639 21.867 5.32674 22.0531 5.24971C22.2392 5.17268 22.4083 5.05977 22.5507 4.91743C22.6932 4.77509 22.8062 4.6061 22.8832 4.42012C22.9603 4.23413 23 4.0348 23 3.83349C23 3.63219 22.9603 3.43287 22.8832 3.24689C22.8061 3.06092 22.6932 2.89194 22.5507 2.74961C22.4083 2.60727 22.2392 2.49437 22.0531 2.41734C21.867 2.34032 21.6676 2.30068 21.4661 2.30069H18.4004V1.53349C18.4005 1.12695 18.2389 0.73706 17.9512 0.449589C17.6636 0.162117 17.2735 0.000615196 16.8667 0.000610352ZM5.75 7.66728C5.54857 7.66727 5.34912 7.70691 5.16302 7.78394C4.97692 7.86098 4.80783 7.97389 4.6654 8.11623C4.52297 8.25857 4.40998 8.42756 4.3329 8.61354C4.25582 8.79952 4.21614 8.99886 4.21614 9.20016V9.96728H1.53423C1.33281 9.96728 1.13336 10.0069 0.947274 10.084C0.761186 10.161 0.592103 10.2739 0.449678 10.4163C0.307253 10.5586 0.194276 10.7276 0.117197 10.9136C0.0401184 11.0995 0.000447353 11.2989 0.000449212 11.5002C0.000447353 11.7015 0.0401184 11.9008 0.117197 12.0868C0.194276 12.2727 0.307253 12.4417 0.449678 12.5841C0.592103 12.7264 0.761186 12.8393 0.947274 12.9164C1.13336 12.9934 1.33281 13.033 1.53423 13.033H4.21614V13.8011C4.21614 14.0024 4.25582 14.2018 4.3329 14.3878C4.40998 14.5737 4.52297 14.7427 4.6654 14.8851C4.80783 15.0274 4.97692 15.1403 5.16302 15.2174C5.34912 15.2944 5.54857 15.334 5.75 15.334C6.15679 15.334 6.54691 15.1725 6.83455 14.885C7.12219 14.5976 7.28379 14.2077 7.28378 13.8011V13.033H21.4667C21.6681 13.033 21.8675 12.9934 22.0536 12.9164C22.2397 12.8393 22.4088 12.7264 22.5512 12.5841C22.6936 12.4417 22.8066 12.2727 22.8837 12.0868C22.9608 11.9008 23.0005 11.7015 23.0005 11.5002C23.0005 11.2989 22.9608 11.0995 22.8837 10.9136C22.8066 10.7276 22.6936 10.5586 22.5512 10.4163C22.4088 10.2739 22.2397 10.161 22.0536 10.084C21.8675 10.0069 21.6681 9.96728 21.4667 9.96728H7.28378V9.20016C7.28379 8.79362 7.12219 8.40373 6.83455 8.11626C6.54691 7.82878 6.15679 7.66728 5.75 7.66728ZM10.7333 15.334C10.3266 15.334 9.93645 15.4955 9.64881 15.783C9.36117 16.0704 9.19957 16.4603 9.19955 16.8668V17.6339H1.53423C1.33281 17.6339 1.13336 17.6736 0.947274 17.7506C0.761186 17.8277 0.592103 17.9406 0.449678 18.0829C0.307253 18.2253 0.194276 18.3942 0.117197 18.5802C0.0401184 18.7662 0.000447353 18.9655 0.000449212 19.1668C0.00046539 19.5734 0.162067 19.9632 0.449705 20.2507C0.737342 20.5381 1.12746 20.6996 1.53423 20.6996H9.19955V21.4678C9.19957 21.8743 9.36117 22.2642 9.64881 22.5517C9.93645 22.8391 10.3266 23.0006 10.7333 23.0006C11.1401 23.0006 11.5302 22.8391 11.8179 22.5517C12.1055 22.2642 12.2671 21.8743 12.2671 21.4678V20.6996H21.4667C21.8734 20.6996 22.2636 20.5381 22.5512 20.2507C22.8388 19.9632 23.0004 19.5734 23.0005 19.1668C23.0005 18.9655 22.9608 18.7662 22.8837 18.5802C22.8066 18.3942 22.6936 18.2253 22.5512 18.0829C22.4088 17.9406 22.2397 17.8277 22.0536 17.7506C21.8675 17.6736 21.6681 17.6339 21.4667 17.6339H12.2671V16.8668C12.2671 16.4603 12.1055 16.0704 11.8179 15.783C11.5302 15.4955 11.1401 15.334 10.7333 15.334Z" fill="#669DF6"/>
</g>
<defs>
<clipPath id="clip0_209_3">
<rect width="23" height="23" fill="white"/>
</clipPath>
</defs>
</svg>
